<?xml version="1.0" encoding="UTF-8"?>
<svg width="512" height="512" viewBox="0 0 512 512" xmlns="http://www.w3.org/2000/svg" role="img" aria-label="Rocket launch icon">
  <defs>
    <linearGradient id="a" x1="0" y1="0" x2="1" y2="1">
      <stop offset="0" stop-color="#fb7185"/>
      <stop offset="1" stop-color="#fbbf24"/>
    </linearGradient>
    <linearGradient id="b" x1="0" y1="0" x2="1" y2="1">
      <stop offset="0" stop-color="#e2e8f0"/>
      <stop offset="1" stop-color="#94a3b8"/>
    </linearGradient>
    <linearGradient id="c" x1="0" y1="0" x2="1" y2="1">
      <stop offset="0" stop-color="#7c3aed"/>
      <stop offset="1" stop-color="#06b6d4"/>
    </linearGradient>
    <filter id="s" x="-30%" y="-30%" width="160%" height="160%">
      <feDropShadow dx="0" dy="14" stdDeviation="12" flood-color="#0b1020" flood-opacity="0.35"/>
    </filter>
  </defs>
  <rect x="44" y="44" width="424" height="424" rx="92" fill="url(#a)" filter="url(#s)"/>
  <path d="M256 124 C300 156 322 206 322 272 C322 340 292 386 256 404 C220 386 190 340 190 272 C190 206 212 156 256 124 Z" fill="url(#b)"/>
  <path d="M256 170 C282 196 296 232 296 270 C296 310 280 342 256 360 C232 342 216 310 216 270 C216 232 230 196 256 170 Z" fill="url(#c)" opacity="0.92"/>
  <circle cx="256" cy="246" r="28" fill="#ffffff" opacity="0.9"/>
  <path d="M214 360 L176 400" stroke="#0b1020" stroke-opacity="0.18" stroke-width="42" stroke-linecap="round"/>
  <path d="M298 360 L336 400" stroke="#0b1020" stroke-opacity="0.18" stroke-width="42" stroke-linecap="round"/>
  <path d="M240 402 C240 432 214 452 214 478 C244 470 256 452 256 432 C256 452 268 470 298 478 C298 452 272 432 272 402 Z" fill="#ffffff" opacity="0.75"/>
</svg>
