<?xml version="1.0" encoding="UTF-8"?>
<svg width="512" height="512" viewBox="0 0 512 512" xmlns="http://www.w3.org/2000/svg" role="img" aria-label="Magic wand icon">
  <defs>
    <linearGradient id="g1" x1="0" y1="0" x2="1" y2="1">
      <stop offset="0" stop-color="#7c3aed"/>
      <stop offset="1" stop-color="#06b6d4"/>
    </linearGradient>
    <linearGradient id="g2" x1="0" y1="0" x2="1" y2="1">
      <stop offset="0" stop-color="#fbbf24"/>
      <stop offset="1" stop-color="#fb7185"/>
    </linearGradient>
    <filter id="s" x="-30%" y="-30%" width="160%" height="160%">
      <feDropShadow dx="0" dy="14" stdDeviation="12" flood-color="#0b1020" flood-opacity="0.35"/>
    </filter>
  </defs>
  <rect x="44" y="44" width="424" height="424" rx="92" fill="url(#g1)" filter="url(#s)"/>
  <circle cx="368" cy="154" r="56" fill="url(#g2)" opacity="0.95"/>
  <path d="M132 362 L308 186" stroke="#fff" stroke-width="28" stroke-linecap="round"/>
  <path d="M164 394 L126 356" stroke="#0b1020" stroke-opacity="0.25" stroke-width="36" stroke-linecap="round"/>
  <path d="M190 420 L90 320" stroke="#ffffff" stroke-width="22" stroke-linecap="round"/>
  <path d="M256 116 L270 148 L304 162 L270 176 L256 210 L242 176 L208 162 L242 148 Z" fill="#fff" opacity="0.85"/>
  <path d="M380 240 L390 262 L414 272 L390 282 L380 304 L370 282 L346 272 L370 262 Z" fill="#fff" opacity="0.85"/>
</svg>
